<svg xmlns="http://www.w3.org/2000/svg" width="20.243" height="21.533" viewBox="0 0 20.243 21.533">
  <path id="Path_6" data-name="Path 6" d="M14.931,4.617a3.009,3.009,0,0,0-4.119,0l-5.3,4.974a3.556,3.556,0,0,0-1.122,2.593v7.954a1.915,1.915,0,0,0,1.915,1.915H8.495a.274.274,0,0,0,.274-.274V17.4a3.009,3.009,0,0,1,3.009-3.009h2.188A3.009,3.009,0,0,1,16.975,17.4v4.377a.274.274,0,0,0,.274.274h2.188a1.915,1.915,0,0,0,1.915-1.915V12.184a3.556,3.556,0,0,0-1.122-2.593ZM9.688,3.42a4.65,4.65,0,0,1,6.366,0l5.3,4.974a5.2,5.2,0,0,1,1.64,3.789v7.954a3.556,3.556,0,0,1-3.556,3.556H17.248a1.915,1.915,0,0,1-1.915-1.915V17.4a1.368,1.368,0,0,0-1.368-1.368H11.777A1.368,1.368,0,0,0,10.409,17.4v4.377a1.915,1.915,0,0,1-1.915,1.915H6.306A3.556,3.556,0,0,1,2.75,20.137V12.184A5.2,5.2,0,0,1,4.39,8.394Z" transform="translate(-2.75 -2.16)" fill="#4d80e4" fill-rule="evenodd"/>
</svg>
