<?xml version="1.0" standalone="no"?>
<!DOCTYPE svg PUBLIC "-//W3C//DTD SVG 20010904//EN"
 "http://www.w3.org/TR/2001/REC-SVG-20010904/DTD/svg10.dtd">
<svg version="1.0" xmlns="http://www.w3.org/2000/svg"
 width="93.000000pt" height="133.000000pt" viewBox="0 0 93.000000 133.000000"
 preserveAspectRatio="xMidYMid meet">

<g transform="translate(0.000000,133.000000) scale(0.100000,-0.100000)"
fill="#000000" stroke="none">
<path d="M400 1319 c-253 -33 -427 -268 -390 -526 10 -74 28 -133 39 -133 4 0
74 79 155 176 82 96 154 178 162 181 8 3 12 8 9 13 -2 4 8 18 23 31 l27 24
-25 -29 c-22 -26 -23 -28 -5 -22 96 36 188 -2 237 -98 13 -26 19 -53 16 -82
-2 -24 0 -40 4 -36 34 37 211 250 215 260 3 6 -12 34 -33 62 -103 135 -264
202 -434 179z m183 -54 c-10 -13 -22 -25 -27 -25 -5 0 1 11 14 25 30 32 36 32
13 0z m-53 -59 c0 -2 -8 -10 -17 -17 -16 -13 -17 -12 -4 4 13 16 21 21 21 13z
m-40 -49 c0 -2 -12 -14 -27 -28 l-28 -24 24 28 c23 25 31 32 31 24z"/>
</g>
</svg>
