<?xml version="1.0" standalone="no"?>
<!DOCTYPE svg PUBLIC "-//W3C//DTD SVG 20010904//EN"
 "http://www.w3.org/TR/2001/REC-SVG-20010904/DTD/svg10.dtd">
<svg version="1.0" xmlns="http://www.w3.org/2000/svg"
 width="200.000000pt" height="252.000000pt" viewBox="0 0 200.000000 252.000000"
 preserveAspectRatio="xMidYMid meet">

<g transform="translate(0.000000,252.000000) scale(0.100000,-0.100000)"
fill="#000000" stroke="none">
<path d="M820 2409 c-30 -5 -99 -25 -153 -43 -292 -100 -514 -335 -587 -621
-42 -162 -22 -395 51 -602 109 -308 366 -675 632 -902 111 -93 191 -141 237
-141 125 0 462 324 666 640 277 428 348 844 199 1159 -112 237 -316 404 -592
487 -76 23 -110 27 -243 30 -85 1 -180 -2 -210 -7z m293 -464 c123 -32 218
-101 287 -207 54 -82 74 -166 68 -278 -5 -79 -11 -101 -42 -165 -83 -168 -239
-265 -426 -265 -428 0 -632 512 -321 803 115 107 284 151 434 112z"/>
</g>
</svg>
