<?xml version="1.0" standalone="no"?>
<!DOCTYPE svg PUBLIC "-//W3C//DTD SVG 20010904//EN"
 "http://www.w3.org/TR/2001/REC-SVG-20010904/DTD/svg10.dtd">
<svg version="1.0" xmlns="http://www.w3.org/2000/svg"
 width="225.000000pt" height="225.000000pt" viewBox="0 0 225.000000 225.000000"
 preserveAspectRatio="xMidYMid meet">

<g transform="translate(0.000000,225.000000) scale(0.100000,-0.100000)"
fill="#000000" stroke="none">
<path d="M1030 2190 c-379 -71 -581 -490 -405 -839 162 -322 566 -408 852
-182 58 45 132 143 162 214 25 57 51 181 51 239 -1 128 -72 305 -158 395 -65
68 -160 128 -239 153 -74 23 -199 33 -263 20z"/>
<path d="M839 740 c-341 -33 -520 -117 -564 -264 -19 -63 -19 -90 1 -156 22
-73 89 -138 186 -178 310 -129 1102 -117 1360 20 108 57 158 137 158 249 -1
167 -143 265 -455 315 -116 18 -551 27 -686 14z"/>
</g>
</svg>
