<?xml version="1.0" standalone="no"?>
<!DOCTYPE svg PUBLIC "-//W3C//DTD SVG 20010904//EN"
 "http://www.w3.org/TR/2001/REC-SVG-20010904/DTD/svg10.dtd">
<svg version="1.0" xmlns="http://www.w3.org/2000/svg"
 width="243.000000pt" height="207.000000pt" viewBox="0 0 243.000000 207.000000"
 preserveAspectRatio="xMidYMid meet">

<g transform="translate(0.000000,207.000000) scale(0.100000,-0.100000)"
fill="#000000" stroke="none">
<path d="M1570 1822 c0 -11 -29 -21 -75 -28 -124 -18 -181 -22 -191 -13 -6 5
-13 6 -17 3 -3 -3 -29 -7 -57 -9 -54 -4 -80 -18 -80 -42 0 -8 -4 -12 -9 -9 -5
3 -12 -1 -15 -10 -4 -12 -2 -15 9 -10 8 3 23 9 33 12 16 5 16 5 0 -9 -27 -21
-22 -27 14 -14 24 9 32 9 35 0 7 -21 30 -15 51 12 20 25 22 25 168 25 l149 -1
31 -42 c17 -23 34 -54 38 -69 5 -24 10 -26 52 -25 42 0 45 2 28 14 -10 7 -26
13 -36 13 -10 0 -18 5 -18 11 0 6 9 8 20 4 11 -3 20 -3 20 0 0 12 -34 65 -42
65 -4 0 -8 10 -9 23 0 21 -1 21 -10 2 -7 -17 -8 -15 -7 10 1 17 -3 39 -10 50
-10 17 -11 15 -5 -14 8 -43 -12 -34 -22 9 -6 27 -45 63 -45 42z"/>
<path d="M1686 1753 c48 -83 51 -86 58 -68 3 9 2 14 -3 11 -9 -6 -21 16 -21
37 0 7 5 6 11 -3 9 -12 10 -12 5 3 -3 10 -6 21 -6 23 0 2 -7 4 -17 4 -9 0 -13
3 -10 7 9 9 -12 33 -30 33 -10 0 -7 -13 13 -47z"/>
<path d="M1777 1678 c8 -15 5 -86 -6 -123 -8 -25 -9 -26 -10 -7 -1 20 -6 22
-59 22 -56 0 -59 -1 -74 -33 l-16 -34 54 -33 c84 -51 80 -65 -5 -18 -18 11
-40 17 -47 14 -20 -8 -17 -36 4 -36 9 -1 31 -7 47 -15 l30 -14 -40 5 c-41 5
-123 -25 -118 -43 2 -4 -24 -22 -57 -39 -83 -42 -84 -48 -12 -41 66 7 68 6 52
-24 -12 -22 -30 -25 -30 -5 0 10 -9 13 -27 11 -16 -2 -46 -4 -68 -4 -36 -1
-43 -5 -69 -47 l-30 -47 35 -29 c54 -45 69 -52 69 -30 0 10 13 33 30 52 30 35
32 19 2 -27 -8 -13 -12 -33 -8 -45 7 -27 121 -118 147 -118 29 0 49 -11 49
-27 0 -12 -8 -13 -39 -8 -35 6 -41 4 -61 -23 -21 -28 -25 -29 -107 -31 -47 -1
-105 -6 -129 -10 -25 -5 -47 -5 -50 0 -3 5 -14 9 -25 9 -10 0 -19 4 -19 9 0
18 -63 21 -89 4 l-26 -17 25 -6 c21 -5 17 -8 -23 -14 -58 -9 -99 -42 -171
-140 -73 -99 -73 -100 -17 -66 118 70 149 89 206 125 33 21 61 39 63 41 2 1
-4 16 -13 33 -8 17 -11 31 -6 31 5 0 18 3 28 7 15 6 16 5 5 -9 -11 -14 -9 -26
16 -80 16 -35 35 -78 42 -96 12 -32 57 -72 80 -72 8 0 9 6 5 18 -4 9 -12 41
-17 70 -8 49 -7 55 14 72 26 22 54 26 60 9 3 -8 55 -8 193 0 105 7 200 14 212
17 13 2 30 18 38 34 l16 30 -63 1 c-51 1 -57 3 -28 8 l35 7 -63 23 c-72 28
-75 36 -7 21 26 -6 50 -8 53 -5 3 3 0 5 -6 5 -7 0 -12 5 -12 10 0 6 9 10 20
10 11 0 20 5 20 12 0 6 -3 8 -6 5 -6 -5 -41 10 -74 31 -2 2 2 8 10 13 12 8 10
9 -7 4 -12 -3 -32 -1 -43 5 -21 11 -21 12 -4 31 10 11 24 17 31 15 20 -8 16
-1 -23 43 -20 22 -41 38 -46 35 -5 -3 -17 3 -26 14 -9 10 -32 27 -50 36 -19
10 -32 20 -29 22 3 3 18 -1 34 -10 19 -9 34 -11 44 -5 8 4 21 6 31 3 10 -3 31
9 55 31 21 19 44 35 51 35 8 0 26 8 40 18 35 24 92 52 107 52 6 0 26 -18 44
-41 20 -24 39 -38 47 -35 8 3 14 2 14 -3 0 -17 68 -82 90 -86 22 -4 22 -3 16
52 -7 57 -29 87 -66 88 -8 0 -17 14 -21 34 -4 21 -21 46 -45 67 l-39 33 -25
-24 c-15 -14 -40 -25 -60 -27 -20 -1 -42 -11 -52 -23 -18 -20 -18 -20 -9 5 6
19 17 26 45 30 26 4 42 13 56 34 17 27 17 32 4 58 -8 15 -10 28 -5 28 5 0 7 9
4 21 -4 13 -8 17 -13 9 -5 -8 -9 -7 -13 4 -3 8 -2 16 3 18 5 2 12 17 16 33 5
30 4 31 -45 47 -29 9 -48 12 -44 6z m-37 -308 c0 -5 -5 -10 -11 -10 -5 0 -7 5
-4 10 3 6 8 10 11 10 2 0 4 -4 4 -10z m53 -25 c-3 -9 -8 -14 -10 -11 -3 3 -2
9 2 15 9 16 15 13 8 -4z m-23 -25 c0 -5 -5 -10 -11 -10 -5 0 -7 5 -4 10 3 6 8
10 11 10 2 0 4 -4 4 -10z m-300 -250 c0 -5 -4 -10 -10 -10 -5 0 -10 5 -10 10
0 6 5 10 10 10 6 0 10 -4 10 -10z"/>
<path d="M1949 1661 c-21 -22 -29 -39 -29 -66 0 -33 -2 -36 -22 -31 -13 3 -18
3 -11 0 7 -3 9 -18 6 -40 -5 -31 -4 -34 13 -27 17 6 17 5 5 -10 -13 -16 -11
-17 27 -11 30 5 48 2 66 -10 39 -25 46 -20 34 20 -7 25 -6 40 1 47 8 8 11 8
11 -1 0 -7 11 -12 25 -12 15 0 25 6 25 14 0 8 3 22 7 31 6 16 4 16 -21 0 -38
-25 -43 -12 -11 30 l28 36 -28 29 c-39 41 -86 41 -126 1z"/>
<path d="M1206 1655 c-3 -8 -1 -15 3 -15 5 0 11 7 15 15 3 8 1 15 -3 15 -5 0
-11 -7 -15 -15z"/>
<path d="M1620 1624 c0 -13 18 -39 24 -34 2 3 -2 14 -10 24 -8 11 -14 16 -14
10z"/>
<path d="M2240 1580 c0 -11 2 -20 4 -20 2 0 6 9 9 20 3 11 1 20 -4 20 -5 0 -9
-9 -9 -20z"/>
<path d="M2260 1560 c0 -11 2 -20 4 -20 2 0 6 9 9 20 3 11 1 20 -4 20 -5 0 -9
-9 -9 -20z"/>
<path d="M2208 1514 c0 -11 -1 -25 -1 -31 1 -7 -3 -10 -8 -7 -5 3 -9 0 -9 -6
0 -6 12 -16 26 -22 22 -11 28 -10 40 7 17 23 18 35 2 35 -9 0 -8 3 2 10 18 11
13 16 -23 25 -22 6 -27 4 -29 -11z"/>
<path d="M2060 1490 c-8 -5 -10 -10 -5 -10 6 0 17 5 25 10 8 5 11 10 5 10 -5
0 -17 -5 -25 -10z"/>
<path d="M2185 1391 c-9 -28 -27 -66 -41 -86 -13 -20 -24 -43 -24 -51 0 -9 -5
-12 -11 -8 -9 5 -10 -6 -7 -40 7 -59 15 -67 38 -37 16 22 113 252 107 257 -1
1 -12 4 -24 8 -18 6 -23 1 -38 -43z"/>
<path d="M1370 1416 c0 -2 7 -7 16 -10 8 -3 12 -2 9 4 -6 10 -25 14 -25 6z"/>
<path d="M1513 1398 c-18 -20 -17 -21 7 -13 45 14 54 22 32 27 -13 4 -27 -1
-39 -14z"/>
<path d="M1390 1350 c18 -12 58 -12 85 0 14 6 3 9 -40 9 -42 1 -56 -2 -45 -9z"/>
<path d="M1003 1289 c-18 -5 -33 -12 -33 -14 0 -3 32 -5 71 -5 62 0 70 2 59
15 -14 17 -48 18 -97 4z"/>
<path d="M430 1191 c0 -10 31 -31 45 -31 11 0 -5 20 -26 30 -12 7 -19 7 -19 1z"/>
<path d="M999 1173 c-12 -15 -12 -16 4 -10 10 4 23 7 28 7 6 0 7 5 4 10 -9 15
-21 12 -36 -7z"/>
<path d="M1211 1024 c-51 -53 -90 -98 -89 -100 8 -7 65 -16 96 -15 17 0 32 -3
32 -9 0 -5 41 18 90 51 50 33 90 67 90 75 0 18 -8 14 -75 -39 l-50 -39 53 51
c29 28 51 55 48 60 -6 9 -90 61 -99 61 -3 0 -46 -43 -96 -96z"/>
<path d="M1120 1051 c-32 -13 -46 -26 -51 -45 -4 -14 -5 -26 -3 -26 7 0 114
81 114 86 0 7 -14 3 -60 -15z"/>
<path d="M1676 1038 c3 -5 10 -6 15 -3 13 9 11 12 -6 12 -8 0 -12 -4 -9 -9z"/>
<path d="M630 1011 c-24 -7 -24 -8 -5 -18 17 -9 26 -8 45 8 23 17 23 18 5 18
-11 -1 -31 -4 -45 -8z"/>
<path d="M1750 1000 c-9 -6 -10 -10 -3 -10 6 0 15 5 18 10 8 12 4 12 -15 0z"/>
<path d="M1073 936 c-12 -38 2 -42 24 -7 10 15 9 22 -1 30 -10 8 -15 3 -23
-23z"/>
<path d="M1815 900 c3 -5 11 -10 16 -10 6 0 7 5 4 10 -3 6 -11 10 -16 10 -6 0
-7 -4 -4 -10z"/>
<path d="M995 890 c-3 -5 -1 -10 4 -10 6 0 11 5 11 10 0 6 -2 10 -4 10 -3 0
-8 -4 -11 -10z"/>
<path d="M1418 893 c7 -3 16 -2 19 1 4 3 -2 6 -13 5 -11 0 -14 -3 -6 -6z"/>
<path d="M615 810 c-3 -5 -2 -10 4 -10 5 0 13 5 16 10 3 6 2 10 -4 10 -5 0
-13 -4 -16 -10z"/>
<path d="M874 766 c-10 -8 -17 -17 -14 -19 3 -3 16 3 30 13 29 22 14 27 -16 6z"/>
<path d="M827 680 c-45 -28 -63 -59 -55 -93 2 -9 24 12 56 54 29 38 52 69 50
69 -2 0 -25 -13 -51 -30z"/>
<path d="M995 699 c-11 -17 1 -21 15 -4 8 9 8 15 2 15 -6 0 -14 -5 -17 -11z"/>
<path d="M625 650 c-3 -5 -1 -10 4 -10 6 0 11 5 11 10 0 6 -2 10 -4 10 -3 0
-8 -4 -11 -10z"/>
<path d="M735 650 c-3 -5 -1 -10 4 -10 6 0 11 5 11 10 0 6 -2 10 -4 10 -3 0
-8 -4 -11 -10z"/>
<path d="M852 600 c-23 -17 -42 -35 -42 -41 0 -12 46 19 74 50 26 29 16 26
-32 -9z"/>
<path d="M698 597 c-21 -8 -28 -18 -28 -38 0 -15 -7 -40 -15 -55 -23 -45 -20
-74 9 -74 21 0 28 9 45 55 26 69 26 68 -1 59 -21 -6 -21 -5 5 30 30 38 28 40
-15 23z"/>
<path d="M616 544 c-4 -9 -4 -19 -1 -22 2 -3 7 3 11 12 4 9 4 19 1 22 -2 3 -7
-3 -11 -12z"/>
<path d="M734 504 c-23 -54 -12 -62 14 -10 12 25 17 46 11 46 -5 0 -17 -16
-25 -36z"/>
<path d="M351 506 c-7 -8 -8 -17 -3 -20 6 -3 12 3 15 14 6 24 4 25 -12 6z"/>
<path d="M515 489 c-4 -6 -5 -12 -2 -15 2 -3 7 2 10 11 7 17 1 20 -8 4z"/>
<path d="M611 414 c0 -11 3 -14 6 -6 3 7 2 16 -1 19 -3 4 -6 -2 -5 -13z"/>
<path d="M478 403 c7 -3 16 -2 19 1 4 3 -2 6 -13 5 -11 0 -14 -3 -6 -6z"/>
<path d="M659 382 c-22 -4 -31 -38 -14 -52 10 -9 16 -6 25 10 15 27 9 46 -11
42z"/>
</g>
</svg>
